/* XPM */
static char *team_logo[] = {
/* columns rows colors chars-per-pixel */
"184 32 60 1 ",
"  c #000000",
". c #0C0C0C",
"X c #131313",
"o c #1B1B1B",
"O c #252525",
"+ c #2C2C2C",
"@ c #343434",
"# c #3C3C3C",
"$ c #444444",
"% c #4A4A4A",
"& c gray32",
"* c #5C5C5C",
"= c #646464",
"- c #6C6C6C",
"; c #747474",
": c #7C7C7C",
"> c #339999",
", c #3E9F9F",
"< c #41A0A0",
"1 c #4CA5A5",
"2 c #55AAAA",
"3 c #5DAEAE",
"4 c #64B1B1",
"5 c #6DB6B6",
"6 c #73B9B9",
"7 c #7DBEBE",
"8 c #848484",
"9 c #8C8C8C",
"0 c #939393",
"q c #9C9C9C",
"w c #80BFBF",
"e c #A3A3A3",
"r c gray67",
"t c #B4B4B4",
"y c #BABABA",
"u c #86C2C2",
"i c #8BC5C5",
"p c #95CACA",
"a c #9CCDCD",
"s c #A0CFCF",
"d c #A2D1D1",
"f c #A9D4D4",
"g c #B6DBDB",
"h c #BDDEDE",
"j c #C4C4C4",
"k c #CDCDCD",
"l c #D3D3D3",
"z c gray86",
"x c #C5E2E2",
"c c #CDE6E6",
"v c #D0E7E7",
"b c #DCEEEE",
"n c #E3E3E3",
"m c #E0EFEF",
"M c #ECECEC",
"N c #E1F0F0",
"B c #E9F4F4",
"V c #F4F4F4",
"C c #F5FAFA",
"Z c #FFFFFF",
/* pixels */
"ZZZZZZZZZZZZZZZZZZZZZZZZZZZZZZZZZZZZZZZZZZZZZZZZZZZZZZZZZZZZZZZZZZZZZZZZZZZZZZZZZZZZZZZZZZZZZZZZZZZZZZZZZZZZZZZZZZZZZZZZZZZZZZZZZZZZZZZZZZZZZZZZZZZZZZZZZZZZZZZZZZZZZZZZZZZZZZZZZZZZZZZZ",
"ZZZZZZZZZZZZZZZZZZZZZZZZZZZZZZZZZZZZZZZZZZZZZZZZZZZZZZZZZZZZZZZZZZZZZZZZZZZZZZZZZZZZZZZZZZZZZZZZZZZZZZZZZZZZZZZZZZZZZZZZZZZZZZZZZZZZZZZZZZZZZZZZZZZZZZZZZZZZZZZZZZZZZZZZZZZZZZZZZZZZZZZZ",
"ZZZZZZZZZZZZZZZZZZZZZZZZZZZZZZZZZZZZZZZZZZZZZZZZZZZZZZZZZZZZZZZZZZZZZZZZZZZZZZZZZZZZZZZZZZZZZZZZZZZZZZZZZZZZZZZZZZZZZZZZZZZZZZZZZZZZZZZZZZZZZZZZZZZZZZZZZZZZZZZZZZZZZZZZZZZZZZZZZZZZZZZZ",
"ZZZZZZZZZZZZZZZZZZZZZZZZZZZZZZZZZZZZZZZZZZZZZZZZZZZZZZZZZZZZZZZZZZZZZZZZZZZZZZZZZZZZZZZZZZZZZZZZZZZZZZZZZZZZZZZZZZZZZZZZZZZZZZZZZZZZZZZZZZZZZZZZZZZZZZZZZZZZZZZZZZZZZZZZZZZZZZZZZZZZZZZZ",
"ZZZZZZZZZZZZZZZZZZZZZZZZZZZZZZZZZZZZZZZZZZZZZZZZZZZZZZZZZZZZZZZZZZZZZZZZZZZZZZZZZZZZZZZZZZZZZZZZZZZZZZZZZZZZZZZZZZZZZZZZZZZZZZZZZZZZZZZZZZZZZZZZZZZZZZZZZZZZZZZZZZZZZZZZZZZZZZZZZZZZZZZZ",
"ZZZZZZZZZZZZZZZZZZZZZZZZZZZZZZZZZZZZZZZZZZZZZZZZZZZZZZZZZZZZZZZZZZZZZZZZZZZZZZZZZZZZZZZZZZZZZZZZZZZZZZZZZZZZZZZZZZZZZZZZZZZZZZZZZZZZZZZZZZZZZZZZZZZZZZZZZZZZZZZZZZZZZZZZZZZZZZZZZZZZZZZZ",
"ZZZZZZZZZZZZZZZZZZZZZZZZZZZZZZZZZZZZZZZZZZZZZZZZZZZZZZZZZZZZZZZZZZZZZZZZZZZZZZZZZZZZZZZZZZZZZZZZZZZZZZZZZZZZZZZZZZZZZZZZZZZZZZZZZZZZZZZZZZZZZZZZZZZZZZZZZZZZZZZZZZZZZZZZZZZZZZZZZZZZZZZZ",
"ZZZZcfuiiiw77777iZZZZZZZZZZZ8=----lZZZZZZZZM----9yZZZZZZZZZMe-----*&*;9lZZZZZZZZZZZZq8----*****=eZZZZZZZZZVe;----***-9jVZZZZZZZZZZZZZZZZZZZy;$##$9kCZZZZZZZZZZZZZZt-----***=:eVZZZZZZZZZ",
"ZZZZCB6>>>3pppp5>ZZZZZZZZZZZl0.   *ZZZZZZZZq   #zMZZZZZZZZZZM0   .8;%. .;ZZZZZZZZZZZMl.  .=:::& &ZZZZZZZZZZMr.  .:;$   $jZZZZZZZZZZZZZZZZM;.o;0q: .&jZZZZZZZZZZZZZVe    &:*X  $zZZZZZZZZ",
"ZZZZZZb>>>uZZZZC>CZZZZZZZZZZZZl    VZZZZZZV+   rZZZZZZZZZZZZZV+  @ZZC%   -ZZZZZZZZZZZZ$  .kZZZZ0@ZZZZZZZZZZZZ@  .ZZZq    nZZZZZZZZZZZZZZkO $VZZZZjo .8ZZZZZZZZZZZZZZo   yZZz#  XzZZZZZZZ",
"ZZZZZZB>>>uZZZZZ5mZZZZZZZZZZZZZo   &ZZZZZZt    0ZZZZZZZZZZZZZV@  @ZZZl    zZZZZZZZZZZZ%  .kZZZZZ#ZZZZZZZZZZZZ@  .CZZZ&   8ZZZZZZZZZZZZZz. .jZZZZZZe   0ZZZZZZZZZZZZZ+   yZZZn   &ZZZZZZZ",
"ZZZZZZB>>>uZZZZZBBZZZZZZZZZZZZZ X  .zZZZZZO#.  *ZZZZZZZZZZZZZV@  @ZZZZ.   yZZZZZZZZZZZ$  .kZZZZZlZZZZZZZZZZZZ@  .ZZZZy   =ZZZZZZZZZZZZZO  oMZZZZZZZo  +MZZZZZZZZZZZZ+   tZZZZ   OVZZZZZZ",
"ZZZZZZB>>>iZZZZZZZZZZZZZZZZZZZVoq   -ZZZZy.j.  #ZZZZZZZZZZZZZV@  @ZZZZ.   tZZZZZZZZZZZ%  XkZZZZZZZZZZZZZZZZZZ@  .ZZZZt   =ZZZZZZZZZZZZ0   OZZZZZZZZe  .lZZZZZZZZZZZZ+   tZZZZ   +VZZZZZZ",
"ZZZZZZB>>>uZZZZBZZZaZZZZZZZZZZjoZ    VZZZ#%Z.  #ZZZZZZZZZZZZZV@  @ZZZn    kZZZZZZZZZZZ$  .kZZZVjZZZZZZZZZZZZZ@  .ZZZZ$   eZZZZZZZZZZZZ&   +ZZZZZZZZk   tZZZZZZZZZZZZ+   yZZZl   ;ZZZZZZZ",
"ZZZZZZB>>>uZZZZgZZc>cZZZZZZZZZq+Z%   ;ZZl zZX  @ZZZZZZZZZZZZZV@  @ZZZ:   %VZZZZZZZZZZZ%  .lZZZy;ZZZZZZZZZZZZZ@  .ZZC9   #VZZZZZZZZZZZCo   %ZZZZZZZZn   %ZZZZZZZZZZZZ+   yZZz+  &CZZZZZZZ",
"ZZZZZZB>>>3apai1iu,>,xZZZZZZZZ;$Zq    nZ=#ZZX  OVZZZZZZZZZZZZV@  +nnrX  %MZZZZZZZZZZZZ$  .-::-X-ZZZZZZZZZZZZZ@   8:%. OeVZZZZZZZZZZZZC.   -ZZZZZZZZV   OZZZZZZZZZZZZ+   *:*o .qZZZZZZZZZ",
"ZZZZZZB>>>2u7u5<74>>3bZZZZZZZZ&&Zl.   ;Z yZZo  OMZZZZZZZZZZZZV@  .#+O+*rZZZZZZZZZZZZZZ%  .%*=$ -ZZZZZZZZZZZZZ@   =%   XyZZZZZZZZZZZZZC.   =ZZZZZZZZV   OZZZZZZZZZZZZ+   $%   .jZZZZZZZZZ",
"ZZZZZZB>>>uZZZZfZZh<BZZZZZZZZZ+*ZZ*   oqoCZZ%  ozZZZZZZZZZZZZV@  @VznMZZZZZZZZZZZZZZZZ$  .lZZZr;ZZZZZZZZZZZZZ@  .ZZ:   .jZZZZZZZZZZZZCO   $ZZZZZZZZn   %ZZZZZZZZZZZZ+   yZy.  XnZZZZZZZZ",
"ZZZZZZB>>>uZZZZBZZZhZZZZZZZZZZ.;ZZn    o0ZZZ:  .lZZZZZZZZZZZZV@  @ZZZZZZZZZZZZZZZZZZZZ%  XkZZZVjZZZZZZZZZZZZZ@  .ZZV+   OVZZZZZZZZZZZZ&   +ZZZZZZZZl   eZZZZZZZZZZZZ+   yZZr   @ZZZZZZZZ",
"ZZZZZZB>>>uZZZZZZZZZZZZZZZZZZZ.0ZZZ%    ZZZZt  .jZZZZZZZZZZZZV@  @ZZZZZZZZZZZZZZZZZZZZ%  .kZZZZZZZZZZZZZZZZZZ@  .ZZZj    rZZZZZZZZZZZZq.  OZZZZZZZZe  .lZZZZZZZZZZZZ+   tZZZ%   8ZZZZZZZ",
"ZZZZZZB>>>uZZZZZZcZZZZZZZZZZZn yZZZn   %ZZZZM  .yZZZZZZZZZZZZV@  @ZZZZZZZZZZZZZZZZZZZZ$  .lZZZZZnlZZZZZZZZZZZ@  .ZZZZ;   +ZZZZZZZZZZZZZ+  oMZZZZZZZO  OMZZZZZZZZZZZZ+   yZZZV   .zZZZZZZ",
"ZZZZZZB>>>uZZZZZZ7ZZZZZZZZZZZt kZZZC%  9ZZZZZ   tZZZZZZZZZZZZV@  @ZZZZZZZZZZZZZZZZZZZZ%  .jZZZZZrqZZZZZZZZZZZ@  .ZZZZno   jZZZZZZZZZZZZn. .jZZZZZZl   :ZZZZZZZZZZZZZ+   yZZZZ8   @ZZZZZZ",
"ZZZZZZm>>>5ZZZZZ77ZZZZZZZZZZZ; eZZZZj. lZZZZZ   9ZZZZZZZZZZZZV@  OZZZZZZZZZZZZZZZZZZZZ$   qZZZZV.rZZZZZZZZZZZ@  .ZZZZZ:   +MZZZZZZZZZZZZjO %VZZZZM#  -ZZZZZZZZZZZZZZo   tZZZZn.   8ZZZZZ",
"ZZZZZB7>>>>5aaa7>7ZZZZZZZZZZr. @kCZZZ+#CZZCn=    jVZZZZZZZZZMe.   rMZZZZZZZZZZZZZZZZVzX   .-98=X tZZZZZZZZZVyX   9MZZZZo   $lZZZZZZZZZZZZM- O8ey0o #tZZZZZZZZZZZZZVt    =ZZZZV#   .qZZZZ",
"ZZZZcd777w7666667gZZZZZZZZZl=**&-nZZZjeZZZz8&****=yZZZZZZZZMq=****=9MZZZZZZZZZZZZZZZq:*****%%&%*=lZZZZZZZZVe-****=0VZZZj&**&:zZZZZZZZZZZZZZr=#$$#;yVZZZZZZZZZZZZZZr=****=qCZZZq*****ZZZZ",
"ZZZZZZZZZZZZZZZZZZZZZZZZZZZZZZZZZZZZZZZZZZZZZZZZZZZZZZZZZZZZZZZZZZZZZZZZZZZZZZZZZZZZZZZZZZZZZZZZZZZZZZZZZZZZZZZZZZZZZZZZZZZZZZZZZZZZZZZZZZZZZZZZZZZZZZZZZZZZZZZZZZZZZZZZZZZZZZZZZZZZZZZZ",
"ZZZZZZZZZZZZZZZZZZZZZZZZZZZZZZZZZZZZZZZZZZZZZZZZZZZZZZZZZZZZZZZZZZZZZZZZZZZZZZZZZZZZZZZZZZZZZZZZZZZZZZZZZZZZZZZZZZZZZZZZZZZZZZZZZZZZZZZZZZZZZZZZZZZZZZZZZZZZZZZZZZZZZZZZZZZZZZZZZZZZZZZZ",
"ZZZZZZZZZZZZZZZZZZZZZZZZZZZZZZZZZZZZZZZZZZZZZZZZZZZZZZZZZZZZZZZZZZZZZZZZZZZZZZZZZZZZZZZZZZZZZZZZZZZZZZZZZZZZZZZZZZZZZZZZZZZZZZZZZZZZZZZZZZZZZZZZZZZZZZZZZZZZZZZZZZZZZZZZZZZZZZZZZZZZZZZZ",
"ZZZZZZZZZZZZZZZZZZZZZZZZZZZZZZZZZZZZZZZZZZZZZZZZZZZZZZZZZZZZZZZZZZZZZZZZZZZZZZZZZZZZZZZZZZZZZZZZZZZZZZZZZZZZZZZZZZZZZZZZZZZZZZZZZZZZZZZZZZZZZZZZZZZZZZZZZZZZZZZZZZZZZZZZZZZZZZZZZZZZZZZZ",
"ZZZZZZZZZZZZZZZZZZZZZZZZZZZZZZZZZZZZZZZZZZZZZZZZZZZZZZZZZZZZZZZZZZZZZZZZZZZZZZZZZZZZZZZZZZZZZZZZZZZZZZZZZZZZZZZZZZZZZZZZZZZZZZZZZZZZZZZZZZZZZZZZZZZZZZZZZZZZZZZZZZZZZZZZZZZZZZZZZZZZZZZZ",
"ZZZZZZZZZZZZZZZZZZZZZZZZZZZZZZZZZZZZZZZZZZZZZZZZZZZZZZZZZZZZZZZZZZZZZZZZZZZZZZZZZZZZZZZZZZZZZZZZZZZZZZZZZZZZZZZZZZZZZZZZZZZZZZZZZZZZZZZZZZZZZZZZZZZZZZZZZZZZZZZZZZZZZZZZZZZZZZZZZZZZZZZZ",
"ZZZZZZZZZZZZZZZZZZZZZZZZZZZZZZZZZZZZZZZZZZZZZZZZZZZZZZZZZZZZZZZZZZZZZZZZZZZZZZZZZZZZZZZZZZZZZZZZZZZZZZZZZZZZZZZZZZZZZZZZZZZZZZZZZZZZZZZZZZZZZZZZZZZZZZZZZZZZZZZZZZZZZZZZZZZZZZZZZZZZZZZZ"
};
